<svg width="35" height="35" viewBox="0 0 35 35" fill="none">
<path d="M2.91666 5.83341C2.91666 6.60696 3.22395 7.34883 3.77093 7.89581C4.31791 8.44279 5.05977 8.75008 5.83332 8.75008C6.60687 8.75008 7.34874 8.44279 7.89572 7.89581C8.4427 7.34883 8.74999 6.60696 8.74999 5.83341C8.74999 5.05987 8.4427 4.318 7.89572 3.77102C7.34874 3.22404 6.60687 2.91675 5.83332 2.91675C5.05977 2.91675 4.31791 3.22404 3.77093 3.77102C3.22395 4.318 2.91666 5.05987 2.91666 5.83341Z" stroke="#B8C1E0" stroke-width="2" stroke-linecap="round" stroke-linejoin="round"/>
<path d="M26.25 14.5834C26.25 15.357 26.5573 16.0988 27.1043 16.6458C27.6513 17.1928 28.3931 17.5001 29.1667 17.5001C29.9402 17.5001 30.6821 17.1928 31.2291 16.6458C31.776 16.0988 32.0833 15.357 32.0833 14.5834C32.0833 13.8099 31.776 13.068 31.2291 12.521C30.6821 11.974 29.9402 11.6667 29.1667 11.6667C28.3931 11.6667 27.6513 11.974 27.1043 12.521C26.5573 13.068 26.25 13.8099 26.25 14.5834Z" stroke="#B8C1E0" stroke-width="2" stroke-linecap="round" stroke-linejoin="round"/>
<path d="M2.91666 17.4999C2.91666 18.2735 3.22395 19.0153 3.77093 19.5623C4.31791 20.1093 5.05977 20.4166 5.83332 20.4166C6.60687 20.4166 7.34874 20.1093 7.89572 19.5623C8.4427 19.0153 8.74999 18.2735 8.74999 17.4999C8.74999 16.7264 8.4427 15.9845 7.89572 15.4375C7.34874 14.8905 6.60687 14.5833 5.83332 14.5833C5.05977 14.5833 4.31791 14.8905 3.77093 15.4375C3.22395 15.9845 2.91666 16.7264 2.91666 17.4999Z" stroke="#B8C1E0" stroke-width="2" stroke-linecap="round" stroke-linejoin="round"/>
<path d="M2.91666 29.1667C2.91666 29.9402 3.22395 30.6821 3.77093 31.2291C4.31791 31.776 5.05977 32.0833 5.83332 32.0833C6.60687 32.0833 7.34874 31.776 7.89572 31.2291C8.4427 30.6821 8.74999 29.9402 8.74999 29.1667C8.74999 28.3931 8.4427 27.6513 7.89572 27.1043C7.34874 26.5573 6.60687 26.25 5.83332 26.25C5.05977 26.25 4.31791 26.5573 3.77093 27.1043C3.22395 27.6513 2.91666 28.3931 2.91666 29.1667Z" stroke="#B8C1E0" stroke-width="2" stroke-linecap="round" stroke-linejoin="round"/>
<path d="M8.75 17.5H13.125C13.5118 17.5 13.8827 17.6536 14.1562 17.9271C14.4297 18.2006 14.5833 18.5716 14.5833 18.9583V27.7083C14.5833 28.0951 14.4297 28.466 14.1562 28.7395C13.8827 29.013 13.5118 29.1667 13.125 29.1667H8.75" stroke="#B8C1E0" stroke-width="2" stroke-linecap="round" stroke-linejoin="round"/>
<path d="M8.75 5.83325H18.9583C19.3451 5.83325 19.716 5.9869 19.9895 6.26039C20.263 6.53388 20.4167 6.90481 20.4167 7.29159V21.8749C20.4167 22.2617 20.263 22.6326 19.9895 22.9061C19.716 23.1796 19.3451 23.3332 18.9583 23.3332H16.0417" stroke="#B8C1E0" stroke-width="2" stroke-linecap="round" stroke-linejoin="round"/>
<path d="M20.4167 14.5833L26.25 14.5833" stroke="#B8C1E0" stroke-width="2" stroke-linecap="round" stroke-linejoin="round"/>
</svg>
