<svg width="35" height="35" viewBox="0 0 35 35" fill="none">
<g clip-path="url(#clip0_372_18085)">
<path d="M14.5833 18.9584C14.5833 19.732 14.8906 20.4738 15.4376 21.0208C15.9846 21.5678 16.7264 21.8751 17.5 21.8751C18.2735 21.8751 19.0154 21.5678 19.5624 21.0208C20.1094 20.4738 20.4167 19.732 20.4167 18.9584C20.4167 18.1849 20.1094 17.443 19.5624 16.896C19.0154 16.349 18.2735 16.0417 17.5 16.0417C16.7264 16.0417 15.9846 16.349 15.4376 16.896C14.8906 17.443 14.5833 18.1849 14.5833 18.9584Z" stroke="#B8C1E0" stroke-width="3" stroke-linecap="round" stroke-linejoin="round"/>
<path d="M11.6667 30.625V29.1667C11.6667 28.3931 11.974 27.6513 12.5209 27.1043C13.0679 26.5573 13.8098 26.25 14.5833 26.25H20.4167C21.1902 26.25 21.9321 26.5573 22.4791 27.1043C23.026 27.6513 23.3333 28.3931 23.3333 29.1667V30.625" stroke="#B8C1E0" stroke-width="3" stroke-linecap="round" stroke-linejoin="round"/>
<path d="M21.875 7.29167C21.875 8.06521 22.1823 8.80708 22.7293 9.35406C23.2763 9.90104 24.0181 10.2083 24.7917 10.2083C25.5652 10.2083 26.3071 9.90104 26.8541 9.35406C27.401 8.80708 27.7083 8.06521 27.7083 7.29167C27.7083 6.51812 27.401 5.77625 26.8541 5.22927C26.3071 4.68229 25.5652 4.375 24.7917 4.375C24.0181 4.375 23.2763 4.68229 22.7293 5.22927C22.1823 5.77625 21.875 6.51812 21.875 7.29167Z" stroke="#B8C1E0" stroke-width="3" stroke-linecap="round" stroke-linejoin="round"/>
<path d="M24.7917 14.5833H27.7083C28.4819 14.5833 29.2238 14.8905 29.7707 15.4375C30.3177 15.9845 30.625 16.7264 30.625 17.4999V18.9583" stroke="#B8C1E0" stroke-width="3" stroke-linecap="round" stroke-linejoin="round"/>
<path d="M7.29166 7.29167C7.29166 8.06521 7.59895 8.80708 8.14593 9.35406C8.69291 9.90104 9.43477 10.2083 10.2083 10.2083C10.9819 10.2083 11.7237 9.90104 12.2707 9.35406C12.8177 8.80708 13.125 8.06521 13.125 7.29167C13.125 6.51812 12.8177 5.77625 12.2707 5.22927C11.7237 4.68229 10.9819 4.375 10.2083 4.375C9.43477 4.375 8.69291 4.68229 8.14593 5.22927C7.59895 5.77625 7.29166 6.51812 7.29166 7.29167Z" stroke="#B8C1E0" stroke-width="3" stroke-linecap="round" stroke-linejoin="round"/>
<path d="M4.375 18.9583V17.4999C4.375 16.7264 4.68229 15.9845 5.22927 15.4375C5.77625 14.8905 6.51812 14.5833 7.29167 14.5833H10.2083" stroke="#B8C1E0" stroke-width="3" stroke-linecap="round" stroke-linejoin="round"/>
</g>
<defs>
<clipPath id="clip0_372_18085">
<rect width="35" height="35" fill="white"/>
</clipPath>
</defs>
</svg>
