<svg width="35" height="35" viewBox="0 0 35 35" fill="none">
<g clip-path="url(#clip0_372_18071)">
<path d="M7.29166 10.2083C7.29166 11.7554 7.90624 13.2392 9.0002 14.3331C10.0942 15.4271 11.5779 16.0417 13.125 16.0417C14.6721 16.0417 16.1558 15.4271 17.2498 14.3331C18.3437 13.2392 18.9583 11.7554 18.9583 10.2083C18.9583 8.66124 18.3437 7.17751 17.2498 6.08354C16.1558 4.98958 14.6721 4.375 13.125 4.375C11.5779 4.375 10.0942 4.98958 9.0002 6.08354C7.90624 7.17751 7.29166 8.66124 7.29166 10.2083Z" stroke="#B8C1E0" stroke-width="3" stroke-linecap="round" stroke-linejoin="round"/>
<path d="M4.375 30.625V27.7083C4.375 26.1612 4.98958 24.6775 6.08354 23.5835C7.17751 22.4896 8.66124 21.875 10.2083 21.875H16.0417C17.5888 21.875 19.0725 22.4896 20.1665 23.5835C21.2604 24.6775 21.875 26.1612 21.875 27.7083V30.625" stroke="#B8C1E0" stroke-width="3" stroke-linecap="round" stroke-linejoin="round"/>
<path d="M23.3333 4.5647C24.5881 4.88597 25.7003 5.61572 26.4945 6.6389C27.2887 7.66208 27.7198 8.92049 27.7198 10.2157C27.7198 11.511 27.2887 12.7694 26.4945 13.7926C25.7003 14.8158 24.5881 15.5455 23.3333 15.8668" stroke="#B8C1E0" stroke-width="3" stroke-linecap="round" stroke-linejoin="round"/>
<path d="M30.625 30.625V27.7083C30.6176 26.4209 30.1845 25.172 29.3931 24.1564C28.6017 23.1408 27.4966 22.4156 26.25 22.0938" stroke="#B8C1E0" stroke-width="3" stroke-linecap="round" stroke-linejoin="round"/>
</g>
<defs>
<clipPath id="clip0_372_18071">
<rect width="35" height="35" fill="white"/>
</clipPath>
</defs>
</svg>
